<svg xmlns="http://www.w3.org/2000/svg" xmlns:xlink="http://www.w3.org/1999/xlink" xmlns:s="https://github.com/nturley/netlistsvg" width="234" height="171.5">
  <style>svg {
    stroke:#000;
    fill:none;
  }
  text {
    fill:#000;
    stroke:none;
    font-size:10px;
    font-weight: bold;
    font-family: "Courier New", monospace;
  }
  .nodelabel {
    text-anchor: middle;
  }
  .inputPortLabel {
    text-anchor: end;
  }
  .splitjoinBody {
    fill:#000;
  }</style>
  <g s:type="gt" transform="translate(77,87)" s:width="25" s:height="25" id="cell_$gt$/cal/exterieurs/saitfora-23/2A/SE/souhail-ait-fora/median/synthese/../src/MCE.sv:8$1">
    <s:alias val="$gt"/>
    <circle r="12.5" cx="12.5" cy="12.5" class="cell_$gt$/cal/exterieurs/saitfora-23/2A/SE/souhail-ait-fora/median/synthese/../src/MCE.sv:8$1"/>
    <line x1="7.5" x2="17.5" y1="7.5" y2="12.5" class="cell_$gt$/cal/exterieurs/saitfora-23/2A/SE/souhail-ait-fora/median/synthese/../src/MCE.sv:8$1"/>
    <line x1="7.5" x2="17.5" y1="17.5" y2="12.5" class="cell_$gt$/cal/exterieurs/saitfora-23/2A/SE/souhail-ait-fora/median/synthese/../src/MCE.sv:8$1"/>
    <g s:x="3" s:y="5" s:pid="A"/>
    <g s:x="3" s:y="20" s:pid="B"/>
    <g s:x="25" s:y="12.5" s:pid="Y"/>
  </g>
  <g s:type="mux" transform="translate(137,12)" s:width="20" s:height="40" id="cell_$ternary$/cal/exterieurs/saitfora-23/2A/SE/souhail-ait-fora/median/synthese/../src/MCE.sv:8$2">
    <s:alias val="$pmux"/>
    <s:alias val="$mux"/>
    <s:alias val="$_MUX_"/>
    <path d="M0,0 L20,10 L20,30 L0,40 Z" class="cell_$ternary$/cal/exterieurs/saitfora-23/2A/SE/souhail-ait-fora/median/synthese/../src/MCE.sv:8$2"/>
    <g s:x="0" s:y="10" s:pid="A"/>
    <g s:x="0" s:y="30" s:pid="B"/>
    <g s:x="10" s:y="35" s:pid="S"/>
    <g s:x="20" s:y="20" s:pid="Y"/>
  </g>
  <g s:type="mux" transform="translate(137,109.5)" s:width="20" s:height="40" id="cell_$ternary$/cal/exterieurs/saitfora-23/2A/SE/souhail-ait-fora/median/synthese/../src/MCE.sv:9$4">
    <s:alias val="$pmux"/>
    <s:alias val="$mux"/>
    <s:alias val="$_MUX_"/>
    <path d="M0,0 L20,10 L20,30 L0,40 Z" class="cell_$ternary$/cal/exterieurs/saitfora-23/2A/SE/souhail-ait-fora/median/synthese/../src/MCE.sv:9$4"/>
    <g s:x="0" s:y="10" s:pid="A"/>
    <g s:x="0" s:y="30" s:pid="B"/>
    <g s:x="10" s:y="35" s:pid="S"/>
    <g s:x="20" s:y="20" s:pid="Y"/>
  </g>
  <g s:type="inputExt" transform="translate(12,32)" s:width="30" s:height="20" id="cell_A">
    <text x="15" y="-4" class="nodelabel cell_A" s:attribute="ref">A</text>
    <s:alias val="$_inputExt_"/>
    <path d="M0,0 L0,20 L15,20 L30,10 L15,0 Z" class="cell_A"/>
    <g s:x="28" s:y="10" s:pid="Y"/>
  </g>
  <g s:type="inputExt" transform="translate(12,97)" s:width="30" s:height="20" id="cell_B">
    <text x="15" y="-4" class="nodelabel cell_B" s:attribute="ref">B</text>
    <s:alias val="$_inputExt_"/>
    <path d="M0,0 L0,20 L15,20 L30,10 L15,0 Z" class="cell_B"/>
    <g s:x="28" s:y="10" s:pid="Y"/>
  </g>
  <g s:type="outputExt" transform="translate(192,22)" s:width="30" s:height="20" id="cell_MAX">
    <text x="15" y="-4" class="nodelabel cell_MAX" s:attribute="ref">MAX</text>
    <s:alias val="$_outputExt_"/>
    <path d="M30,0 L30,20 L15,20 L0,10 L15,0 Z" class="cell_MAX"/>
    <g s:x="0" s:y="10" s:pid="A"/>
  </g>
  <g s:type="outputExt" transform="translate(192,119.5)" s:width="30" s:height="20" id="cell_MIN">
    <text x="15" y="-4" class="nodelabel cell_MIN" s:attribute="ref">MIN</text>
    <s:alias val="$_outputExt_"/>
    <path d="M30,0 L30,20 L15,20 L0,10 L15,0 Z" class="cell_MIN"/>
    <g s:x="0" s:y="10" s:pid="A"/>
  </g>
  <line x1="40" x2="62" y1="42" y2="42" class="net_2,3,4,5,6,7,8,9"/>
  <line x1="62" x2="62" y1="42" y2="92" class="net_2,3,4,5,6,7,8,9"/>
  <circle cx="62" cy="42" r="2" style="fill:#000" class="net_2,3,4,5,6,7,8,9"/>
  <line x1="62" x2="80" y1="92" y2="92" class="net_2,3,4,5,6,7,8,9"/>
  <line x1="40" x2="137" y1="42" y2="42" class="net_2,3,4,5,6,7,8,9"/>
  <line x1="40" x2="122" y1="42" y2="42" class="net_2,3,4,5,6,7,8,9"/>
  <line x1="122" x2="122" y1="42" y2="119.5" class="net_2,3,4,5,6,7,8,9"/>
  <circle cx="122" cy="42" r="2" style="fill:#000" class="net_2,3,4,5,6,7,8,9"/>
  <line x1="122" x2="137" y1="119.5" y2="119.5" class="net_2,3,4,5,6,7,8,9"/>
  <line x1="40" x2="80" y1="107" y2="107" class="net_10,11,12,13,14,15,16,17"/>
  <line x1="40" x2="52" y1="107" y2="107" class="net_10,11,12,13,14,15,16,17"/>
  <line x1="52" x2="52" y1="107" y2="22" class="net_10,11,12,13,14,15,16,17"/>
  <circle cx="52" cy="107" r="2" style="fill:#000" class="net_10,11,12,13,14,15,16,17"/>
  <line x1="52" x2="137" y1="22" y2="22" class="net_10,11,12,13,14,15,16,17"/>
  <line x1="40" x2="52" y1="107" y2="107" class="net_10,11,12,13,14,15,16,17"/>
  <line x1="52" x2="52" y1="107" y2="139.5" class="net_10,11,12,13,14,15,16,17"/>
  <line x1="52" x2="137" y1="139.5" y2="139.5" class="net_10,11,12,13,14,15,16,17"/>
  <line x1="102" x2="147" y1="99.5" y2="99.5" class="net_34"/>
  <line x1="147" x2="147" y1="99.5" y2="47" class="net_34"/>
  <line x1="102" x2="112" y1="99.5" y2="99.5" class="net_34"/>
  <line x1="112" x2="112" y1="99.5" y2="159.5" class="net_34"/>
  <line x1="112" x2="147" y1="159.5" y2="159.5" class="net_34"/>
  <circle cx="112" cy="99.5" r="2" style="fill:#000" class="net_34"/>
  <line x1="147" x2="147" y1="159.5" y2="144.5" class="net_34"/>
  <line x1="157" x2="192" y1="32" y2="32" class="net_18,19,20,21,22,23,24,25"/>
  <line x1="157" x2="192" y1="129.5" y2="129.5" class="net_26,27,28,29,30,31,32,33"/>
</svg>
