<svg xmlns="http://www.w3.org/2000/svg" xmlns:xlink="http://www.w3.org/1999/xlink" xmlns:s="https://github.com/nturley/netlistsvg" width="871" height="274">
  <style>svg {
    stroke:#000;
    fill:none;
  }
  text {
    fill:#000;
    stroke:none;
    font-size:10px;
    font-weight: bold;
    font-family: "Courier New", monospace;
  }
  .nodelabel {
    text-anchor: middle;
  }
  .inputPortLabel {
    text-anchor: end;
  }
  .splitjoinBody {
    fill:#000;
  }</style>
  <g s:type="dff" transform="translate(189,106)" s:width="30" s:height="40" id="cell_$procdff$16">
    <s:alias val="$dff"/>
    <s:alias val="$_DFF_"/>
    <s:alias val="$_DFF_P_"/>
    <rect width="30" height="40" x="0" y="0" class="cell_$procdff$16"/>
    <path d="M0,35 L5,30 L0,25" class="cell_$procdff$16"/>
    <g s:x="30" s:y="10" s:pid="Q"/>
    <g s:x="0" s:y="30" s:pid="CLK"/>
    <g s:x="0" s:y="30" s:pid="C"/>
    <g s:x="0" s:y="10" s:pid="D"/>
  </g>
  <g s:type="dff" transform="translate(254,106)" s:width="30" s:height="40" id="cell_$procdff$17">
    <s:alias val="$dff"/>
    <s:alias val="$_DFF_"/>
    <s:alias val="$_DFF_P_"/>
    <rect width="30" height="40" x="0" y="0" class="cell_$procdff$17"/>
    <path d="M0,35 L5,30 L0,25" class="cell_$procdff$17"/>
    <g s:x="30" s:y="10" s:pid="Q"/>
    <g s:x="0" s:y="30" s:pid="CLK"/>
    <g s:x="0" s:y="30" s:pid="C"/>
    <g s:x="0" s:y="10" s:pid="D"/>
  </g>
  <g s:type="dff" transform="translate(319,106)" s:width="30" s:height="40" id="cell_$procdff$18">
    <s:alias val="$dff"/>
    <s:alias val="$_DFF_"/>
    <s:alias val="$_DFF_P_"/>
    <rect width="30" height="40" x="0" y="0" class="cell_$procdff$18"/>
    <path d="M0,35 L5,30 L0,25" class="cell_$procdff$18"/>
    <g s:x="30" s:y="10" s:pid="Q"/>
    <g s:x="0" s:y="30" s:pid="CLK"/>
    <g s:x="0" s:y="30" s:pid="C"/>
    <g s:x="0" s:y="10" s:pid="D"/>
  </g>
  <g s:type="dff" transform="translate(384,106)" s:width="30" s:height="40" id="cell_$procdff$19">
    <s:alias val="$dff"/>
    <s:alias val="$_DFF_"/>
    <s:alias val="$_DFF_P_"/>
    <rect width="30" height="40" x="0" y="0" class="cell_$procdff$19"/>
    <path d="M0,35 L5,30 L0,25" class="cell_$procdff$19"/>
    <g s:x="30" s:y="10" s:pid="Q"/>
    <g s:x="0" s:y="30" s:pid="CLK"/>
    <g s:x="0" s:y="30" s:pid="C"/>
    <g s:x="0" s:y="10" s:pid="D"/>
  </g>
  <g s:type="dff" transform="translate(449,106)" s:width="30" s:height="40" id="cell_$procdff$20">
    <s:alias val="$dff"/>
    <s:alias val="$_DFF_"/>
    <s:alias val="$_DFF_P_"/>
    <rect width="30" height="40" x="0" y="0" class="cell_$procdff$20"/>
    <path d="M0,35 L5,30 L0,25" class="cell_$procdff$20"/>
    <g s:x="30" s:y="10" s:pid="Q"/>
    <g s:x="0" s:y="30" s:pid="CLK"/>
    <g s:x="0" s:y="30" s:pid="C"/>
    <g s:x="0" s:y="10" s:pid="D"/>
  </g>
  <g s:type="dff" transform="translate(514,106)" s:width="30" s:height="40" id="cell_$procdff$21">
    <s:alias val="$dff"/>
    <s:alias val="$_DFF_"/>
    <s:alias val="$_DFF_P_"/>
    <rect width="30" height="40" x="0" y="0" class="cell_$procdff$21"/>
    <path d="M0,35 L5,30 L0,25" class="cell_$procdff$21"/>
    <g s:x="30" s:y="10" s:pid="Q"/>
    <g s:x="0" s:y="30" s:pid="CLK"/>
    <g s:x="0" s:y="30" s:pid="C"/>
    <g s:x="0" s:y="10" s:pid="D"/>
  </g>
  <g s:type="dff" transform="translate(579,106)" s:width="30" s:height="40" id="cell_$procdff$22">
    <s:alias val="$dff"/>
    <s:alias val="$_DFF_"/>
    <s:alias val="$_DFF_P_"/>
    <rect width="30" height="40" x="0" y="0" class="cell_$procdff$22"/>
    <path d="M0,35 L5,30 L0,25" class="cell_$procdff$22"/>
    <g s:x="30" s:y="10" s:pid="Q"/>
    <g s:x="0" s:y="30" s:pid="CLK"/>
    <g s:x="0" s:y="30" s:pid="C"/>
    <g s:x="0" s:y="10" s:pid="D"/>
  </g>
  <g s:type="dff" transform="translate(644,106)" s:width="30" s:height="40" id="cell_$procdff$23">
    <s:alias val="$dff"/>
    <s:alias val="$_DFF_"/>
    <s:alias val="$_DFF_P_"/>
    <rect width="30" height="40" x="0" y="0" class="cell_$procdff$23"/>
    <path d="M0,35 L5,30 L0,25" class="cell_$procdff$23"/>
    <g s:x="30" s:y="10" s:pid="Q"/>
    <g s:x="0" s:y="30" s:pid="CLK"/>
    <g s:x="0" s:y="30" s:pid="C"/>
    <g s:x="0" s:y="10" s:pid="D"/>
  </g>
  <g s:type="dff" transform="translate(764,42.5)" s:width="30" s:height="40" id="cell_$procdff$24">
    <s:alias val="$dff"/>
    <s:alias val="$_DFF_"/>
    <s:alias val="$_DFF_P_"/>
    <rect width="30" height="40" x="0" y="0" class="cell_$procdff$24"/>
    <path d="M0,35 L5,30 L0,25" class="cell_$procdff$24"/>
    <g s:x="30" s:y="10" s:pid="Q"/>
    <g s:x="0" s:y="30" s:pid="CLK"/>
    <g s:x="0" s:y="30" s:pid="C"/>
    <g s:x="0" s:y="10" s:pid="D"/>
  </g>
  <g s:type="mux" transform="translate(127.33333333333333,96)" s:width="20" s:height="40" id="cell_$ternary$/cal/exterieurs/sagouzal-23/projse04/souhail-ait-fora/median/synthese/../src/MED.sv:11$7">
    <s:alias val="$pmux"/>
    <s:alias val="$mux"/>
    <s:alias val="$_MUX_"/>
    <path d="M0,0 L20,10 L20,30 L0,40 Z" class="cell_$ternary$/cal/exterieurs/sagouzal-23/projse04/souhail-ait-fora/median/synthese/../src/MED.sv:11$7"/>
    <g s:x="0" s:y="10" s:pid="A"/>
    <g s:x="0" s:y="30" s:pid="B"/>
    <g s:x="10" s:y="35" s:pid="S"/>
    <g s:x="20" s:y="20" s:pid="Y"/>
  </g>
  <g s:type="mux" transform="translate(709,32.5)" s:width="20" s:height="40" id="cell_$ternary$/cal/exterieurs/sagouzal-23/projse04/souhail-ait-fora/median/synthese/../src/MED.sv:13$8">
    <s:alias val="$pmux"/>
    <s:alias val="$mux"/>
    <s:alias val="$_MUX_"/>
    <path d="M0,0 L20,10 L20,30 L0,40 Z" class="cell_$ternary$/cal/exterieurs/sagouzal-23/projse04/souhail-ait-fora/median/synthese/../src/MED.sv:13$8"/>
    <g s:x="0" s:y="10" s:pid="A"/>
    <g s:x="0" s:y="30" s:pid="B"/>
    <g s:x="10" s:y="35" s:pid="S"/>
    <g s:x="20" s:y="20" s:pid="Y"/>
  </g>
  <g s:type="generic" transform="translate(39,32)" s:width="30" s:height="40" id="cell_I_MCE">
    <text x="15" y="-4" class="nodelabel cell_I_MCE" s:attribute="ref">$paramod\MCE\WIDTH=s32'00000000000000000000000000001000</text>
    <rect width="30" height="40" s:generic="body" class="cell_I_MCE"/>
    <g transform="translate(0,10)" s:x="0" s:y="10" s:pid="in0" id="port_I_MCE~A">
      <text x="-3" y="-4" class="inputPortLabel cell_I_MCE">A</text>
    </g>
    <g transform="translate(0,30)" s:x="0" s:y="10" s:pid="in0" id="port_I_MCE~B">
      <text x="-3" y="-4" class="inputPortLabel cell_I_MCE">B</text>
    </g>
    <g transform="translate(30,10)" s:x="30" s:y="10" s:pid="out0" id="port_I_MCE~MAX">
      <text x="5" y="-4" style="fill:#000; stroke:none" class="cell_I_MCE">MAX</text>
    </g>
    <g transform="translate(30,30)" s:x="30" s:y="10" s:pid="out0" id="port_I_MCE~MIN">
      <text x="5" y="-4" style="fill:#000; stroke:none" class="cell_I_MCE">MIN</text>
    </g>
  </g>
  <g s:type="inputExt" transform="translate(644,242)" s:width="30" s:height="20" id="cell_BYP">
    <text x="15" y="-4" class="nodelabel cell_BYP" s:attribute="ref">BYP</text>
    <s:alias val="$_inputExt_"/>
    <path d="M0,0 L0,20 L15,20 L30,10 L15,0 Z" class="cell_BYP"/>
    <g s:x="28" s:y="10" s:pid="Y"/>
  </g>
  <g s:type="inputExt" transform="translate(39,181)" s:width="30" s:height="20" id="cell_DSI">
    <text x="15" y="-4" class="nodelabel cell_DSI" s:attribute="ref">DSI</text>
    <s:alias val="$_inputExt_"/>
    <path d="M0,0 L0,20 L15,20 L30,10 L15,0 Z" class="cell_DSI"/>
    <g s:x="28" s:y="10" s:pid="Y"/>
  </g>
  <g s:type="inputExt" transform="translate(124,211)" s:width="30" s:height="20" id="cell_CLK">
    <text x="15" y="-4" class="nodelabel cell_CLK" s:attribute="ref">CLK</text>
    <s:alias val="$_inputExt_"/>
    <path d="M0,0 L0,20 L15,20 L30,10 L15,0 Z" class="cell_CLK"/>
    <g s:x="28" s:y="10" s:pid="Y"/>
  </g>
  <g s:type="inputExt" transform="translate(39,116)" s:width="30" s:height="20" id="cell_DI">
    <text x="15" y="-4" class="nodelabel cell_DI" s:attribute="ref">DI</text>
    <s:alias val="$_inputExt_"/>
    <path d="M0,0 L0,20 L15,20 L30,10 L15,0 Z" class="cell_DI"/>
    <g s:x="28" s:y="10" s:pid="Y"/>
  </g>
  <g s:type="outputExt" transform="translate(829,42.5)" s:width="30" s:height="20" id="cell_DO">
    <text x="15" y="-4" class="nodelabel cell_DO" s:attribute="ref">DO</text>
    <s:alias val="$_outputExt_"/>
    <path d="M30,0 L30,20 L15,20 L0,10 L15,0 Z" class="cell_DO"/>
    <g s:x="0" s:y="10" s:pid="A"/>
  </g>
  <line x1="152" x2="164" y1="221" y2="221" class="net_4"/>
  <line x1="164" x2="164" y1="221" y2="136" class="net_4"/>
  <circle cx="164" cy="221" r="2" style="fill:#000" class="net_4"/>
  <line x1="164" x2="189" y1="136" y2="136" class="net_4"/>
  <line x1="152" x2="229" y1="221" y2="221" class="net_4"/>
  <line x1="229" x2="229" y1="221" y2="136" class="net_4"/>
  <circle cx="229" cy="221" r="2" style="fill:#000" class="net_4"/>
  <line x1="229" x2="254" y1="136" y2="136" class="net_4"/>
  <line x1="152" x2="294" y1="221" y2="221" class="net_4"/>
  <line x1="294" x2="294" y1="221" y2="136" class="net_4"/>
  <circle cx="294" cy="221" r="2" style="fill:#000" class="net_4"/>
  <line x1="294" x2="319" y1="136" y2="136" class="net_4"/>
  <line x1="152" x2="359" y1="221" y2="221" class="net_4"/>
  <line x1="359" x2="359" y1="221" y2="136" class="net_4"/>
  <circle cx="359" cy="221" r="2" style="fill:#000" class="net_4"/>
  <line x1="359" x2="384" y1="136" y2="136" class="net_4"/>
  <line x1="152" x2="424" y1="221" y2="221" class="net_4"/>
  <line x1="424" x2="424" y1="221" y2="136" class="net_4"/>
  <circle cx="424" cy="221" r="2" style="fill:#000" class="net_4"/>
  <line x1="424" x2="449" y1="136" y2="136" class="net_4"/>
  <line x1="152" x2="489" y1="221" y2="221" class="net_4"/>
  <line x1="489" x2="489" y1="221" y2="136" class="net_4"/>
  <circle cx="489" cy="221" r="2" style="fill:#000" class="net_4"/>
  <line x1="489" x2="514" y1="136" y2="136" class="net_4"/>
  <line x1="152" x2="554" y1="221" y2="221" class="net_4"/>
  <line x1="554" x2="554" y1="221" y2="136" class="net_4"/>
  <circle cx="554" cy="221" r="2" style="fill:#000" class="net_4"/>
  <line x1="554" x2="579" y1="136" y2="136" class="net_4"/>
  <line x1="152" x2="619" y1="221" y2="221" class="net_4"/>
  <line x1="619" x2="619" y1="221" y2="136" class="net_4"/>
  <circle cx="619" cy="221" r="2" style="fill:#000" class="net_4"/>
  <line x1="619" x2="644" y1="136" y2="136" class="net_4"/>
  <line x1="152" x2="739" y1="221" y2="221" class="net_4"/>
  <line x1="739" x2="739" y1="221" y2="72.5" class="net_4"/>
  <line x1="739" x2="764" y1="72.5" y2="72.5" class="net_4"/>
  <line x1="147.33333333333331" x2="189" y1="116" y2="116" class="net_21,22,23,24,25,26,27,28"/>
  <line x1="219" x2="254" y1="116" y2="116" class="net_29,30,31,32,33,34,35,36"/>
  <line x1="284" x2="319" y1="116" y2="116" class="net_37,38,39,40,41,42,43,44"/>
  <line x1="349" x2="384" y1="116" y2="116" class="net_45,46,47,48,49,50,51,52"/>
  <line x1="414" x2="449" y1="116" y2="116" class="net_53,54,55,56,57,58,59,60"/>
  <line x1="479" x2="514" y1="116" y2="116" class="net_61,62,63,64,65,66,67,68"/>
  <line x1="544" x2="579" y1="116" y2="116" class="net_69,70,71,72,73,74,75,76"/>
  <line x1="609" x2="644" y1="116" y2="116" class="net_77,78,79,80,81,82,83,84"/>
  <line x1="729" x2="764" y1="52.5" y2="52.5" class="net_93,94,95,96,97,98,99,100"/>
  <line x1="70" x2="99" y1="62.5" y2="62.5" class="net_101,102,103,104,105,106,107,108"/>
  <line x1="99" x2="99" y1="62.5" y2="106" class="net_101,102,103,104,105,106,107,108"/>
  <line x1="99" x2="127.33333333333333" y1="106" y2="106" class="net_101,102,103,104,105,106,107,108"/>
  <line x1="67" x2="127.33333333333333" y1="126" y2="126" class="net_5,6,7,8,9,10,11,12"/>
  <line x1="67" x2="137.33333333333331" y1="191" y2="191" class="net_3"/>
  <line x1="137.33333333333331" x2="137.33333333333331" y1="191" y2="131" class="net_3"/>
  <line x1="70" x2="709" y1="42.5" y2="42.5" class="net_109,110,111,112,113,114,115,116"/>
  <line x1="674" x2="684" y1="116" y2="116" class="net_85,86,87,88,89,90,91,92"/>
  <line x1="684" x2="684" y1="116" y2="62.5" class="net_85,86,87,88,89,90,91,92"/>
  <line x1="684" x2="709" y1="62.5" y2="62.5" class="net_85,86,87,88,89,90,91,92"/>
  <line x1="674" x2="684" y1="116" y2="116" class="net_85,86,87,88,89,90,91,92"/>
  <line x1="684" x2="684" y1="116" y2="85" class="net_85,86,87,88,89,90,91,92"/>
  <line x1="684" x2="12" y1="85" y2="85" class="net_85,86,87,88,89,90,91,92"/>
  <line x1="12" x2="12" y1="85" y2="62.5" class="net_85,86,87,88,89,90,91,92"/>
  <circle cx="684" cy="85" r="2" style="fill:#000" class="net_85,86,87,88,89,90,91,92"/>
  <line x1="12" x2="39" y1="62.5" y2="62.5" class="net_85,86,87,88,89,90,91,92"/>
  <line x1="672" x2="719" y1="252" y2="252" class="net_2"/>
  <line x1="719" x2="719" y1="252" y2="67.5" class="net_2"/>
  <line x1="794" x2="804" y1="52.5" y2="52.5" class="net_13,14,15,16,17,18,19,20"/>
  <line x1="804" x2="804" y1="52.5" y2="12" class="net_13,14,15,16,17,18,19,20"/>
  <line x1="804" x2="12" y1="12" y2="12" class="net_13,14,15,16,17,18,19,20"/>
  <line x1="12" x2="12" y1="12" y2="42.5" class="net_13,14,15,16,17,18,19,20"/>
  <circle cx="804" cy="52.5" r="2" style="fill:#000" class="net_13,14,15,16,17,18,19,20"/>
  <line x1="12" x2="39" y1="42.5" y2="42.5" class="net_13,14,15,16,17,18,19,20"/>
  <line x1="794" x2="829" y1="52.5" y2="52.5" class="net_13,14,15,16,17,18,19,20"/>
</svg>
