<svg xmlns="http://www.w3.org/2000/svg" xmlns:xlink="http://www.w3.org/1999/xlink" xmlns:s="https://github.com/nturley/netlistsvg" width="1124" height="278.5">
  <style>svg {
    stroke:#000;
    fill:none;
  }
  text {
    fill:#000;
    stroke:none;
    font-size:10px;
    font-weight: bold;
    font-family: "Courier New", monospace;
  }
  .nodelabel {
    text-anchor: middle;
  }
  .inputPortLabel {
    text-anchor: end;
  }
  .splitjoinBody {
    fill:#000;
  }</style>
  <g s:type="dff" transform="translate(329,78)" s:width="30" s:height="40" id="cell_$procdff$16">
    <s:alias val="$dff"/>
    <s:alias val="$_DFF_"/>
    <s:alias val="$_DFF_P_"/>
    <rect width="30" height="40" x="0" y="0" class="cell_$procdff$16"/>
    <path d="M0,35 L5,30 L0,25" class="cell_$procdff$16"/>
    <g s:x="30" s:y="10" s:pid="Q"/>
    <g s:x="0" s:y="30" s:pid="CLK"/>
    <g s:x="0" s:y="30" s:pid="C"/>
    <g s:x="0" s:y="10" s:pid="D"/>
  </g>
  <g s:type="dff" transform="translate(394,78)" s:width="30" s:height="40" id="cell_$procdff$17">
    <s:alias val="$dff"/>
    <s:alias val="$_DFF_"/>
    <s:alias val="$_DFF_P_"/>
    <rect width="30" height="40" x="0" y="0" class="cell_$procdff$17"/>
    <path d="M0,35 L5,30 L0,25" class="cell_$procdff$17"/>
    <g s:x="30" s:y="10" s:pid="Q"/>
    <g s:x="0" s:y="30" s:pid="CLK"/>
    <g s:x="0" s:y="30" s:pid="C"/>
    <g s:x="0" s:y="10" s:pid="D"/>
  </g>
  <g s:type="dff" transform="translate(459,78)" s:width="30" s:height="40" id="cell_$procdff$18">
    <s:alias val="$dff"/>
    <s:alias val="$_DFF_"/>
    <s:alias val="$_DFF_P_"/>
    <rect width="30" height="40" x="0" y="0" class="cell_$procdff$18"/>
    <path d="M0,35 L5,30 L0,25" class="cell_$procdff$18"/>
    <g s:x="30" s:y="10" s:pid="Q"/>
    <g s:x="0" s:y="30" s:pid="CLK"/>
    <g s:x="0" s:y="30" s:pid="C"/>
    <g s:x="0" s:y="10" s:pid="D"/>
  </g>
  <g s:type="dff" transform="translate(524,78)" s:width="30" s:height="40" id="cell_$procdff$19">
    <s:alias val="$dff"/>
    <s:alias val="$_DFF_"/>
    <s:alias val="$_DFF_P_"/>
    <rect width="30" height="40" x="0" y="0" class="cell_$procdff$19"/>
    <path d="M0,35 L5,30 L0,25" class="cell_$procdff$19"/>
    <g s:x="30" s:y="10" s:pid="Q"/>
    <g s:x="0" s:y="30" s:pid="CLK"/>
    <g s:x="0" s:y="30" s:pid="C"/>
    <g s:x="0" s:y="10" s:pid="D"/>
  </g>
  <g s:type="dff" transform="translate(589,78)" s:width="30" s:height="40" id="cell_$procdff$20">
    <s:alias val="$dff"/>
    <s:alias val="$_DFF_"/>
    <s:alias val="$_DFF_P_"/>
    <rect width="30" height="40" x="0" y="0" class="cell_$procdff$20"/>
    <path d="M0,35 L5,30 L0,25" class="cell_$procdff$20"/>
    <g s:x="30" s:y="10" s:pid="Q"/>
    <g s:x="0" s:y="30" s:pid="CLK"/>
    <g s:x="0" s:y="30" s:pid="C"/>
    <g s:x="0" s:y="10" s:pid="D"/>
  </g>
  <g s:type="dff" transform="translate(654,78)" s:width="30" s:height="40" id="cell_$procdff$21">
    <s:alias val="$dff"/>
    <s:alias val="$_DFF_"/>
    <s:alias val="$_DFF_P_"/>
    <rect width="30" height="40" x="0" y="0" class="cell_$procdff$21"/>
    <path d="M0,35 L5,30 L0,25" class="cell_$procdff$21"/>
    <g s:x="30" s:y="10" s:pid="Q"/>
    <g s:x="0" s:y="30" s:pid="CLK"/>
    <g s:x="0" s:y="30" s:pid="C"/>
    <g s:x="0" s:y="10" s:pid="D"/>
  </g>
  <g s:type="dff" transform="translate(719,78)" s:width="30" s:height="40" id="cell_$procdff$22">
    <s:alias val="$dff"/>
    <s:alias val="$_DFF_"/>
    <s:alias val="$_DFF_P_"/>
    <rect width="30" height="40" x="0" y="0" class="cell_$procdff$22"/>
    <path d="M0,35 L5,30 L0,25" class="cell_$procdff$22"/>
    <g s:x="30" s:y="10" s:pid="Q"/>
    <g s:x="0" s:y="30" s:pid="CLK"/>
    <g s:x="0" s:y="30" s:pid="C"/>
    <g s:x="0" s:y="10" s:pid="D"/>
  </g>
  <g s:type="dff" transform="translate(784,78)" s:width="30" s:height="40" id="cell_$procdff$23">
    <s:alias val="$dff"/>
    <s:alias val="$_DFF_"/>
    <s:alias val="$_DFF_P_"/>
    <rect width="30" height="40" x="0" y="0" class="cell_$procdff$23"/>
    <path d="M0,35 L5,30 L0,25" class="cell_$procdff$23"/>
    <g s:x="30" s:y="10" s:pid="Q"/>
    <g s:x="0" s:y="30" s:pid="CLK"/>
    <g s:x="0" s:y="30" s:pid="C"/>
    <g s:x="0" s:y="10" s:pid="D"/>
  </g>
  <g s:type="dff" transform="translate(1017,32.5)" s:width="30" s:height="40" id="cell_$procdff$24">
    <s:alias val="$dff"/>
    <s:alias val="$_DFF_"/>
    <s:alias val="$_DFF_P_"/>
    <rect width="30" height="40" x="0" y="0" class="cell_$procdff$24"/>
    <path d="M0,35 L5,30 L0,25" class="cell_$procdff$24"/>
    <g s:x="30" s:y="10" s:pid="Q"/>
    <g s:x="0" s:y="30" s:pid="CLK"/>
    <g s:x="0" s:y="30" s:pid="C"/>
    <g s:x="0" s:y="10" s:pid="D"/>
  </g>
  <g s:type="mux" transform="translate(202.33333333333334,58)" s:width="20" s:height="40" id="cell_$ternary$/cal/exterieurs/saitfora-23/2A/SE/souhail-ait-fora/median/synthese/../src/MED.sv:11$7">
    <s:alias val="$pmux"/>
    <s:alias val="$mux"/>
    <s:alias val="$_MUX_"/>
    <path d="M0,0 L20,10 L20,30 L0,40 Z" class="cell_$ternary$/cal/exterieurs/saitfora-23/2A/SE/souhail-ait-fora/median/synthese/../src/MED.sv:11$7"/>
    <g s:x="0" s:y="10" s:pid="A"/>
    <g s:x="0" s:y="30" s:pid="B"/>
    <g s:x="10" s:y="35" s:pid="S"/>
    <g s:x="20" s:y="20" s:pid="Y"/>
  </g>
  <g s:type="mux" transform="translate(914,12.5)" s:width="20" s:height="40" id="cell_$ternary$/cal/exterieurs/saitfora-23/2A/SE/souhail-ait-fora/median/synthese/../src/MED.sv:13$8">
    <s:alias val="$pmux"/>
    <s:alias val="$mux"/>
    <s:alias val="$_MUX_"/>
    <path d="M0,0 L20,10 L20,30 L0,40 Z" class="cell_$ternary$/cal/exterieurs/saitfora-23/2A/SE/souhail-ait-fora/median/synthese/../src/MED.sv:13$8"/>
    <g s:x="0" s:y="10" s:pid="A"/>
    <g s:x="0" s:y="30" s:pid="B"/>
    <g s:x="10" s:y="35" s:pid="S"/>
    <g s:x="20" s:y="20" s:pid="Y"/>
  </g>
  <g s:type="generic" transform="translate(49,34.5)" s:width="30" s:height="40" id="cell_I_MCE">
    <text x="15" y="-4" class="nodelabel cell_I_MCE" s:attribute="ref">$paramod\MCE\WIDTH=s32'00000000000000000000000000001000</text>
    <rect width="30" height="40" s:generic="body" class="cell_I_MCE"/>
    <g transform="translate(0,10)" s:x="0" s:y="10" s:pid="in0" id="port_I_MCE~A">
      <text x="-3" y="-4" class="inputPortLabel cell_I_MCE">A</text>
    </g>
    <g transform="translate(0,30)" s:x="0" s:y="10" s:pid="in0" id="port_I_MCE~B">
      <text x="-3" y="-4" class="inputPortLabel cell_I_MCE">B</text>
    </g>
    <g transform="translate(30,10)" s:x="30" s:y="10" s:pid="out0" id="port_I_MCE~MAX">
      <text x="5" y="-4" style="fill:#000; stroke:none" class="cell_I_MCE">MAX</text>
    </g>
    <g transform="translate(30,30)" s:x="30" s:y="10" s:pid="out0" id="port_I_MCE~MIN">
      <text x="5" y="-4" style="fill:#000; stroke:none" class="cell_I_MCE">MIN</text>
    </g>
  </g>
  <g s:type="inputExt" transform="translate(849,108)" s:width="30" s:height="20" id="cell_BYP">
    <text x="15" y="-4" class="nodelabel cell_BYP" s:attribute="ref">BYP</text>
    <s:alias val="$_inputExt_"/>
    <path d="M0,0 L0,20 L15,20 L30,10 L15,0 Z" class="cell_BYP"/>
    <g s:x="28" s:y="10" s:pid="Y"/>
  </g>
  <g s:type="inputExt" transform="translate(134,203.5)" s:width="30" s:height="20" id="cell_DSI">
    <text x="15" y="-4" class="nodelabel cell_DSI" s:attribute="ref">DSI</text>
    <s:alias val="$_inputExt_"/>
    <path d="M0,0 L0,20 L15,20 L30,10 L15,0 Z" class="cell_DSI"/>
    <g s:x="28" s:y="10" s:pid="Y"/>
  </g>
  <g s:type="inputExt" transform="translate(264,152.5)" s:width="30" s:height="20" id="cell_CLK">
    <text x="15" y="-4" class="nodelabel cell_CLK" s:attribute="ref">CLK</text>
    <s:alias val="$_inputExt_"/>
    <path d="M0,0 L0,20 L15,20 L30,10 L15,0 Z" class="cell_CLK"/>
    <g s:x="28" s:y="10" s:pid="Y"/>
  </g>
  <g s:type="inputExt" transform="translate(49,123.5)" s:width="30" s:height="20" id="cell_DI">
    <text x="15" y="-4" class="nodelabel cell_DI" s:attribute="ref">DI</text>
    <s:alias val="$_inputExt_"/>
    <path d="M0,0 L0,20 L15,20 L30,10 L15,0 Z" class="cell_DI"/>
    <g s:x="28" s:y="10" s:pid="Y"/>
  </g>
  <g s:type="outputExt" transform="translate(1082,32.5)" s:width="30" s:height="20" id="cell_DO">
    <text x="15" y="-4" class="nodelabel cell_DO" s:attribute="ref">DO</text>
    <s:alias val="$_outputExt_"/>
    <path d="M30,0 L30,20 L15,20 L0,10 L15,0 Z" class="cell_DO"/>
    <g s:x="0" s:y="10" s:pid="A"/>
  </g>
  <g s:type="constant" transform="translate(199,233.5)" s:width="30" s:height="20" id="cell_0000000">
    <text x="15" y="-4" class="nodelabel cell_0000000" s:attribute="ref">0x0</text>
    <s:alias val="$_constant_"/>
    <rect width="30" height="20" class="cell_0000000"/>
    <g s:x="30" s:y="10" s:pid="Y"/>
  </g>
  <g s:type="join" transform="translate(275,67.5)" s:width="4" s:height="40" id="cell_$join$,21,103,104,105,106,107,108,109,">
    <rect width="5" height="40" class="splitjoinBody" s:generic="body"/>
    <s:alias val="$_join_"/>
    <g s:x="5" s:y="20" s:pid="out"/>
    <g transform="translate(0,10)" s:x="0" s:y="10" s:pid="in0">
      <text x="-3" y="-4" class="inputPortLabel">0</text>
    </g>
    <g transform="translate(0,30)" s:x="0" s:y="10" s:pid="in0">
      <text x="-3" y="-4" class="inputPortLabel">1:7</text>
    </g>
  </g>
  <g s:type="join" transform="translate(976,22)" s:width="4" s:height="40" id="cell_$join$,86,103,104,105,106,107,108,109,">
    <rect width="5" height="40" class="splitjoinBody" s:generic="body"/>
    <s:alias val="$_join_"/>
    <g s:x="5" s:y="20" s:pid="out"/>
    <g transform="translate(0,10)" s:x="0" s:y="10" s:pid="in0">
      <text x="-3" y="-4" class="inputPortLabel">0</text>
    </g>
    <g transform="translate(0,30)" s:x="0" s:y="10" s:pid="in0">
      <text x="-3" y="-4" class="inputPortLabel">1:7</text>
    </g>
  </g>
  <g s:type="split" transform="translate(152,57.5)" s:width="5" s:height="40" id="cell_$split$,87,96,97,98,99,100,101,102,">
    <rect width="5" height="20" class="splitjoinBody" s:generic="body"/>
    <s:alias val="$_split_"/>
    <g s:x="0" s:y="20" s:pid="in"/>
    <g transform="translate(4,10)" s:x="4" s:y="10" s:pid="out0">
      <text x="5" y="-4">0</text>
    </g>
  </g>
  <g s:type="split" transform="translate(152,100.5)" s:width="5" s:height="40" id="cell_$split$,5,6,7,8,9,10,11,12,">
    <rect width="5" height="20" class="splitjoinBody" s:generic="body"/>
    <s:alias val="$_split_"/>
    <g s:x="0" s:y="20" s:pid="in"/>
    <g transform="translate(4,10)" s:x="4" s:y="10" s:pid="out0">
      <text x="5" y="-4">0</text>
    </g>
  </g>
  <g s:type="split" transform="translate(867,12)" s:width="5" s:height="40" id="cell_$split$,88,89,90,91,92,93,94,95,">
    <rect width="5" height="20" class="splitjoinBody" s:generic="body"/>
    <s:alias val="$_split_"/>
    <g s:x="0" s:y="20" s:pid="in"/>
    <g transform="translate(4,10)" s:x="4" s:y="10" s:pid="out0">
      <text x="5" y="-4">0</text>
    </g>
  </g>
  <g s:type="split" transform="translate(867,55)" s:width="5" s:height="40" id="cell_$split$,78,79,80,81,82,83,84,85,">
    <rect width="5" height="20" class="splitjoinBody" s:generic="body"/>
    <s:alias val="$_split_"/>
    <g s:x="0" s:y="20" s:pid="in"/>
    <g transform="translate(4,10)" s:x="4" s:y="10" s:pid="out0">
      <text x="5" y="-4">0</text>
    </g>
  </g>
  <line x1="292" x2="304" y1="162.5" y2="162.5" class="net_4"/>
  <line x1="304" x2="304" y1="162.5" y2="108" class="net_4"/>
  <circle cx="304" cy="162.5" r="2" style="fill:#000" class="net_4"/>
  <line x1="304" x2="329" y1="108" y2="108" class="net_4"/>
  <line x1="292" x2="369" y1="162.5" y2="162.5" class="net_4"/>
  <line x1="369" x2="369" y1="162.5" y2="108" class="net_4"/>
  <circle cx="369" cy="162.5" r="2" style="fill:#000" class="net_4"/>
  <line x1="369" x2="394" y1="108" y2="108" class="net_4"/>
  <line x1="292" x2="434" y1="162.5" y2="162.5" class="net_4"/>
  <line x1="434" x2="434" y1="162.5" y2="108" class="net_4"/>
  <circle cx="434" cy="162.5" r="2" style="fill:#000" class="net_4"/>
  <line x1="434" x2="459" y1="108" y2="108" class="net_4"/>
  <line x1="292" x2="499" y1="162.5" y2="162.5" class="net_4"/>
  <line x1="499" x2="499" y1="162.5" y2="108" class="net_4"/>
  <circle cx="499" cy="162.5" r="2" style="fill:#000" class="net_4"/>
  <line x1="499" x2="524" y1="108" y2="108" class="net_4"/>
  <line x1="292" x2="564" y1="162.5" y2="162.5" class="net_4"/>
  <line x1="564" x2="564" y1="162.5" y2="108" class="net_4"/>
  <circle cx="564" cy="162.5" r="2" style="fill:#000" class="net_4"/>
  <line x1="564" x2="589" y1="108" y2="108" class="net_4"/>
  <line x1="292" x2="629" y1="162.5" y2="162.5" class="net_4"/>
  <line x1="629" x2="629" y1="162.5" y2="108" class="net_4"/>
  <circle cx="629" cy="162.5" r="2" style="fill:#000" class="net_4"/>
  <line x1="629" x2="654" y1="108" y2="108" class="net_4"/>
  <line x1="292" x2="694" y1="162.5" y2="162.5" class="net_4"/>
  <line x1="694" x2="694" y1="162.5" y2="108" class="net_4"/>
  <circle cx="694" cy="162.5" r="2" style="fill:#000" class="net_4"/>
  <line x1="694" x2="719" y1="108" y2="108" class="net_4"/>
  <line x1="292" x2="759" y1="162.5" y2="162.5" class="net_4"/>
  <line x1="759" x2="759" y1="162.5" y2="108" class="net_4"/>
  <line x1="759" x2="784" y1="108" y2="108" class="net_4"/>
  <line x1="292" x2="304" y1="162.5" y2="162.5" class="net_4"/>
  <line x1="304" x2="304" y1="162.5" y2="254.5" class="net_4"/>
  <line x1="304" x2="992" y1="254.5" y2="254.5" class="net_4"/>
  <line x1="992" x2="992" y1="254.5" y2="62.5" class="net_4"/>
  <line x1="992" x2="1017" y1="62.5" y2="62.5" class="net_4"/>
  <line x1="281" x2="329" y1="88" y2="88" class="net_21,103,104,105,106,107,108,109"/>
  <line x1="359" x2="394" y1="88" y2="88" class="net_22,23,24,25,26,27,28,29"/>
  <line x1="424" x2="459" y1="88" y2="88" class="net_30,31,32,33,34,35,36,37"/>
  <line x1="489" x2="524" y1="88" y2="88" class="net_38,39,40,41,42,43,44,45"/>
  <line x1="554" x2="589" y1="88" y2="88" class="net_46,47,48,49,50,51,52,53"/>
  <line x1="619" x2="654" y1="88" y2="88" class="net_54,55,56,57,58,59,60,61"/>
  <line x1="684" x2="719" y1="88" y2="88" class="net_62,63,64,65,66,67,68,69"/>
  <line x1="749" x2="784" y1="88" y2="88" class="net_70,71,72,73,74,75,76,77"/>
  <line x1="982" x2="1017" y1="42.5" y2="42.5" class="net_86,103,104,105,106,107,108,109"/>
  <line x1="157" x2="202.33333333333334" y1="68" y2="68" class="net_87"/>
  <line x1="157" x2="174" y1="111" y2="111" class="net_5"/>
  <line x1="174" x2="174" y1="111" y2="88" class="net_5"/>
  <line x1="174" x2="202.33333333333334" y1="88" y2="88" class="net_5"/>
  <line x1="162" x2="212.33333333333334" y1="213.5" y2="213.5" class="net_3"/>
  <line x1="212.33333333333334" x2="212.33333333333334" y1="213.5" y2="93" class="net_3"/>
  <line x1="872" x2="914" y1="22.5" y2="22.5" class="net_88"/>
  <line x1="872" x2="889" y1="65.5" y2="65.5" class="net_78"/>
  <line x1="889" x2="889" y1="65.5" y2="42.5" class="net_78"/>
  <line x1="889" x2="914" y1="42.5" y2="42.5" class="net_78"/>
  <line x1="877" x2="924" y1="118" y2="118" class="net_2"/>
  <line x1="924" x2="924" y1="118" y2="47.5" class="net_2"/>
  <line x1="1047" x2="1057" y1="42.5" y2="42.5" class="net_13,14,15,16,17,18,19,20"/>
  <line x1="1057" x2="1057" y1="42.5" y2="265.5" class="net_13,14,15,16,17,18,19,20"/>
  <line x1="1057" x2="12" y1="265.5" y2="265.5" class="net_13,14,15,16,17,18,19,20"/>
  <line x1="12" x2="12" y1="265.5" y2="45" class="net_13,14,15,16,17,18,19,20"/>
  <circle cx="1057" cy="42.5" r="2" style="fill:#000" class="net_13,14,15,16,17,18,19,20"/>
  <line x1="12" x2="49" y1="45" y2="45" class="net_13,14,15,16,17,18,19,20"/>
  <line x1="1047" x2="1082" y1="42.5" y2="42.5" class="net_13,14,15,16,17,18,19,20"/>
  <line x1="814" x2="824" y1="88" y2="88" class="net_78,79,80,81,82,83,84,85"/>
  <line x1="824" x2="824" y1="88" y2="182.5" class="net_78,79,80,81,82,83,84,85"/>
  <line x1="824" x2="22" y1="182.5" y2="182.5" class="net_78,79,80,81,82,83,84,85"/>
  <line x1="22" x2="22" y1="182.5" y2="65" class="net_78,79,80,81,82,83,84,85"/>
  <circle cx="824" cy="88" r="2" style="fill:#000" class="net_78,79,80,81,82,83,84,85"/>
  <line x1="22" x2="49" y1="65" y2="65" class="net_78,79,80,81,82,83,84,85"/>
  <line x1="814" x2="867.5" y1="88" y2="88" class="net_78,79,80,81,82,83,84,85"/>
  <line x1="867.5" x2="867.5" y1="88" y2="76" class="net_78,79,80,81,82,83,84,85"/>
  <line x1="222.33333333333334" x2="275" y1="78" y2="78" class="net_21"/>
  <line x1="229" x2="239" y1="243.5" y2="243.5" class="net_103,104,105,106,107,108,109"/>
  <line x1="239" x2="239" y1="243.5" y2="98" class="net_103,104,105,106,107,108,109"/>
  <circle cx="239" cy="243.5" r="2" style="fill:#000" class="net_103,104,105,106,107,108,109"/>
  <line x1="239" x2="275" y1="98" y2="98" class="net_103,104,105,106,107,108,109"/>
  <line x1="229" x2="944" y1="243.5" y2="243.5" class="net_103,104,105,106,107,108,109"/>
  <line x1="944" x2="944" y1="243.5" y2="52.5" class="net_103,104,105,106,107,108,109"/>
  <line x1="944" x2="976" y1="52.5" y2="52.5" class="net_103,104,105,106,107,108,109"/>
  <line x1="934" x2="976" y1="32.5" y2="32.5" class="net_86"/>
  <line x1="80" x2="109" y1="65" y2="65" class="net_87,96,97,98,99,100,101,102"/>
  <line x1="109" x2="109" y1="65" y2="90.5" class="net_87,96,97,98,99,100,101,102"/>
  <line x1="109" x2="152.5" y1="90.5" y2="90.5" class="net_87,96,97,98,99,100,101,102"/>
  <line x1="152.5" x2="152.5" y1="90.5" y2="78.5" class="net_87,96,97,98,99,100,101,102"/>
  <line x1="77" x2="152.5" y1="133.5" y2="133.5" class="net_5,6,7,8,9,10,11,12"/>
  <line x1="152.5" x2="152.5" y1="133.5" y2="121.5" class="net_5,6,7,8,9,10,11,12"/>
  <line x1="80" x2="867.5" y1="45" y2="45" class="net_88,89,90,91,92,93,94,95"/>
  <line x1="867.5" x2="867.5" y1="45" y2="33" class="net_88,89,90,91,92,93,94,95"/>
</svg>
